<?xml version="1.0" encoding="utf-8"?>
<!-- Generator: Adobe Illustrator 19.0.0, SVG Export Plug-In . SVG Version: 6.00 Build 0)  -->
<!DOCTYPE svg PUBLIC "-//W3C//DTD SVG 1.1//EN" "http://www.w3.org/Graphics/SVG/1.1/DTD/svg11.dtd">
<svg version="1.1" id="Layer_1" xmlns="http://www.w3.org/2000/svg" xmlns:xlink="http://www.w3.org/1999/xlink" x="0px" y="0px"
	 viewBox="84 27 960 560" style="enable-background:new 84 27 960 560;" xml:space="preserve">
<style type="text/css">
	.st0{fill:none;stroke:#E46C0A;stroke-width:2.04;stroke-linejoin:round;stroke-miterlimit:10;}
	.st1{fill:none;stroke:#385D8A;stroke-width:2.04;stroke-linejoin:round;stroke-miterlimit:10;}
	.st2{fill:none;stroke:#404040;stroke-width:2.04;stroke-linejoin:round;stroke-miterlimit:10;}
	.st3{fill:none;stroke:#404040;stroke-width:2.04;stroke-linejoin:round;stroke-miterlimit:10;stroke-dasharray:10,10;}
	.st4{fill:none;stroke:#404040;stroke-width:6;stroke-linejoin:round;stroke-miterlimit:10;}
	.st5{fill:none;stroke:#404040;stroke-width:3;stroke-linejoin:round;stroke-miterlimit:10;}
	.st6{fill:#FFF7CE;stroke:#FFC643;stroke-width:0.48;stroke-miterlimit:10;}
	.st7{fill:#E46C0A;}
	.st8{font-family:'Arial-BoldMT';}
	.st9{font-size:16px;}
	.st10{fill:#E6E0EC;}
	.st11{fill:none;stroke:#B3A2C7;stroke-width:0.48;stroke-linejoin:round;stroke-miterlimit:10;}
	.st12{fill:#604A7B;}
	.st13{font-family:'ArialMT';}
	.st14{font-size:15.96px;}
</style>
<path class="st0" d="M587.8,319.4c-30.3-2.7-76.6-10.3-116.8-7.2s-77.1,10-91,28.8s1,54.5,24.5,80.5"/>
<path class="st1" d="M403.2,428.1c3.3,4.3,26,10.5-4.9-7.2s-51.4-42.4-55-65.6c-3.6-23.2,9-61.2,33.4-73.6s81.4-4,112.7-0.8
	c31.3,3.2,42.4-3.3,75.1,20c32.7,23.3,25.7,12.9,33.4,19.2"/>
<path class="st2" d="M409.3,430.5c2.8,4.3,22.4,10.5-4.2-7.2c-26.6-17.7-44.2-42.4-47.3-65.6c-3.1-23.2,8.2-53.8,29.2-66.2
	s69.6-11.4,96.5-8.2"/>
<a>
	<path id="XMLID_24_" class="st3" d="M359.7,323.8c23.5,1.6,19.8-6.6,40.1-8.4c19.7-1.7,38.2,6.3,70.7,19.8
		c27.6,11.4,46.7,15,85.7,15.6c35.3,0.5,74.9,3,123.4-7.2c94.5-19.8,151.6-62.9,121.6-130.6"/>
	<path id="XMLID_23_" class="st3" d="M359,321.2c23.5,1.6,19.8-2.7,40.2-4.5c19.7-1.7,41.2,4.6,71.3,22.8
		c30.1,18.1,64.6,40.4,85.7,49.7c32.3,14.3,71.5,37.1,88.7,39.5c29.4,4.2,68.8,4.2,82.1,0"/>
	<path id="XMLID_26_" class="st4" d="M267.6,400.8c11.2-2.8,34.4-73.4,47.8-68.7c10.2,3.6,41.6-6.7,46.1,16.2
		c6,30.6,65.8,27.5,88.5,30.1s29.5,5.5,35.2,12.8s0.7,16.7-0.8,31.2s28.1,46.7-8,56s-170.2,9.5-208.8,0c-38.6-9.5-22.5-44-22.4-56.8
		S256.4,403.6,267.6,400.8L267.6,400.8z"/>
	<path id="XMLID_21_" class="st3" d="M317.8,310c31.8-50.3,51.5-73.1,14.4-131.2"/>
	<path id="XMLID_20_" class="st5" d="M384.3,430.5c3.8,4.3,29.9,10.5-5.6-7.2s-45.4-38.8-45.4-62.3c0-24.6,12.6-48.5,55.1-54.5
		c42.1-5.9,140.8,9.4,176.8,12.6"/>
	<path class="st5" d="M384.3,430.5c3.8,4.3,29.9,10.5-5.6-7.2s-59.1-42.4-63.2-65.6c-4.1-23.2,10.4-61.2,38.4-73.6s93.6-4,129.6-0.8
		"/>
	<path id="XMLID_22_" class="st6" d="M274.5,324.4c0-10.7,27.5-19.4,61.5-19.4s61.5,8.7,61.5,19.4c0,10.7-27.5,19.4-61.5,19.4
		S274.5,335.1,274.5,324.4L274.5,324.4z"/>
	<text id="XMLID_1_" transform="matrix(1 0 0 1 282 330.6487)" class="st7 st8 st9">Data Librarian</text>
</a>
<g>
	<path class="st10" d="M315,377.1c0-9,31.5-16.3,70.3-16.3c38.9,0,70.3,7.3,70.3,16.3s-31.5,16.3-70.3,16.3
		C346.4,393.5,315,386.2,315,377.1L315,377.1z"/>
	<path class="st11" d="M315,377.1c0-9,31.2-16.3,69.5-16.3c38.4,0,69.5,7.3,69.5,16.3s-31.2,16.3-69.5,16.3
		C346.1,393.5,315,386.2,315,377.1L315,377.1z"/>
</g>
<text transform="matrix(1 0 0 1 323.459 382.2871)" class="st12 st13 st14">Liason Librarians</text>
</svg>
