<?xml version="1.0" encoding="utf-8"?>
<!-- Generator: Adobe Illustrator 19.0.0, SVG Export Plug-In . SVG Version: 6.00 Build 0)  -->
<!DOCTYPE svg PUBLIC "-//W3C//DTD SVG 1.1//EN" "http://www.w3.org/Graphics/SVG/1.1/DTD/svg11.dtd">
<svg version="1.1" id="Layer_1" xmlns="http://www.w3.org/2000/svg" xmlns:xlink="http://www.w3.org/1999/xlink" x="0px" y="0px"
	 viewBox="84 27 960 560" style="enable-background:new 84 27 960 560;" xml:space="preserve">
<style type="text/css">
	.st0{fill:none;stroke:#404040;stroke-width:2.04;stroke-linejoin:round;stroke-miterlimit:10;}
	.st1{fill:none;stroke:#404040;stroke-width:3;stroke-linejoin:round;stroke-miterlimit:10;}
</style>
<path class="st0" d="M409.3,430.5c2.8,4.3,22.4,10.5-4.2-7.2c-26.6-17.7-51.8-42.6-54.9-65.8s6.6-54.1,27.5-66.5
	s78.8-10.9,105.8-7.7"/>
<path id="XMLID_20_" class="st1" d="M384.3,430.5c3.8,4.3,41.7,6.5,6.2-11.3s-57.2-34.8-57.2-58.3c0-24.6,12.6-48.5,55.1-54.5
	c42.1-5.9,140.8,9.4,176.8,12.6"/>
<path class="st1" d="M384.3,430.5c3.8,4.3,45,10.2,9.5-7.5s-74.2-42.1-78.3-65.3c-4.1-23.2,10.4-61.2,38.4-73.6s93.6-4,129.6-0.8"/>
</svg>
